<svg version="1.1" xmlns="http://www.w3.org/2000/svg" xmlns:xlink="http://www.w3.org/1999/xlink">
  <symbol id="shevron" viewBox="0 0 9 14">
    <path d="M8.76135 7.54421L2.16118 13.7747C1.84298 14.0751 1.32678 14.0751 1.00857 13.7747L0.238697 13.0479C-0.0791701 12.7478 -0.0795093 12.2618 0.237339 11.9611L5.46823 7.00016L0.23768 2.03892C-0.0795085 1.7382 -0.0788296 1.25217 0.239038 0.952093L1.00892 0.225299C1.32712 -0.0751004 1.84332 -0.0751004 2.16152 0.225299L8.76135 6.45611C9.07955 6.75651 9.07955 7.24381 8.76135 7.54421V7.54421Z"/>
  </symbol>
  <symbol id="arrow" viewBox="0 0 23 14">
    <path d="M14.5689 0.937715L15.2956 0.226013C15.6033 -0.0753378 16.1009 -0.0753378 16.4054 0.226013L22.7692 6.455C23.0769 6.75636 23.0769 7.24365 22.7692 7.54179L16.4054 13.774C16.0976 14.0753 15.6001 14.0753 15.2956 13.774L14.5689 13.0623C14.2579 12.7577 14.2644 12.2608 14.582 11.9627L18.5266 8.28235H0.785661C0.350274 8.28235 0 7.93932 0 7.51294V6.48706C0 6.06068 0.350274 5.71766 0.785661 5.71766H18.5266L14.582 2.03733C14.2612 1.73918 14.2546 1.24227 14.5689 0.937715Z"/>
  </symbol>
</svg>
