<svg width="23" height="14" viewBox="0 0 23 14" fill="none" xmlns="http://www.w3.org/2000/svg">
<path d="M14.5689 0.937715L15.2956 0.226013C15.6033 -0.0753378 16.1009 -0.0753378 16.4054 0.226013L22.7692 6.455C23.0769 6.75636 23.0769 7.24365 22.7692 7.54179L16.4054 13.774C16.0976 14.0753 15.6001 14.0753 15.2956 13.774L14.5689 13.0623C14.2579 12.7577 14.2644 12.2608 14.582 11.9627L18.5266 8.28235H0.785661C0.350274 8.28235 0 7.93932 0 7.51294V6.48706C0 6.06068 0.350274 5.71766 0.785661 5.71766H18.5266L14.582 2.03733C14.2612 1.73918 14.2546 1.24227 14.5689 0.937715Z" fill="white"/>
</svg>
